<?xml version="1.0" encoding="utf-8"?>
<!-- Generator: Adobe Illustrator 25.4.1, SVG Export Plug-In . SVG Version: 6.00 Build 0)  -->
<svg version="1.1" id="Capa_1" xmlns="https://www.w3.org/2000/svg" xmlns:xlink="https://www.w3.org/1999/xlink" x="0px" y="0px"
	 viewBox="0 0 512 512" style="enable-background:new 0 0 512 512;" xml:space="preserve">
<style type="text/css">
	.st0{fill:#FFFFFF;}
</style>
<g>
	<g>
		<path class="st0" d="M467,76H45C20.2,76,0,96.1,0,121v270c0,24.9,20.3,45,45,45h422c24.8,0,45-20.1,45-45V121
			C512,96.1,491.8,76,467,76z M460.1,106c-14.5,14.6-185.4,186-192.5,193.1c-5.9,5.9-17.4,5.9-23.2,0L51.9,106H460.1z M30,385.5
			v-259L159.1,256L30,385.5z M51.9,406l128.3-128.8l42.9,43c17.6,17.6,48.2,17.6,65.7,0l42.9-43L460.1,406H51.9z M482,385.5
			L352.9,256L482,126.5V385.5z"/>
	</g>
</g>
</svg>
