<svg xmlns="http://www.w3.org/2000/svg" width="2.838in" height="3.403in" viewBox="0 0 204.301 245.05">
  <defs>
    <style>
      .a {
        fill: #f2f1f0;
      }

      .b {
        fill: none;
      }

      .c {
        fill: #2d2a29;
      }
    </style>
  </defs>
  <g>
    <path class="a" d="M168.481,73.494a54.555,54.555,0,0,1,.107-5.712s.03-.328.06-.607a30.689,30.689,0,0,1,2-7.482c3.554-8.387,5.331-12.581,5.321-15.8,0-1.264-.189-7.955-5.487-11.8-5.807-4.22-13-1.573-13.634-1.33a57.178,57.178,0,0,0-40.571-27.6C97.6.327,83.35,7.871,78.842,10.341A63.265,63.265,0,0,0,58.41,28.268c-1.724-.387-11.793-2.478-20.451,3.824a24.607,24.607,0,0,0-8.131,10.547A26.752,26.752,0,0,0,28.149,56.2c.919,6.76,3.466,5.827,5.986,14.133a64.208,64.208,0,0,1,1.128,25.62c-.009.06-.02.119-.02.119,0,.023-.009.051-.016.091a177.207,177.207,0,0,0-2.647,19.712A162.291,162.291,0,0,1,91,101.094a164.221,164.221,0,0,1,81.519,16.483C171.2,107.609,168.738,87.711,168.481,73.494Z"/>
    <g>
      <path class="b" d="M37.257,109.857l0,.015.165-.078.219-.1c.186-.091.339-.164.494-.228,1.049-.432,1.91-.767,2.713-1.056s1.58-.589,2.309-.874l.874-.347c1.6-.639,3.254-1.3,5.017-1.807l.788-.228c.741-.211,1.466-.42,2.17-.64.891-.277,1.775-.606,2.63-.924l2.021-.8c.309-.122.607-.241.908-.349l.35-.131c.305-.114.564-.211.825-.293.9-.285,1.592-.5,2.26-.7.384-.111.7-.2,1.029-.283l.291-.074c.222-.059.462-.121.7-.172l.775-.17c1.142-.249,2.32-.5,3.491-.731l.129-.025c1.377-.267,2.8-.542,4.164-.858l.489-.115c.335-.078.688-.161,1.036-.237l.487-.109c.357-.08.715-.16,1.072-.227l1.525-.29c.447-.084.908-.151,1.355-.215l.509-.074c.2-.03.407-.049.6-.068l.433-.044c.19-.022.368-.041.547-.055l.423-.036c.411-.035.754-.064,1.092-.08,1-.049,2.087-.1,3.193-.1,2.3-.015,4.387-.04,6.374-.079,1.455-.028,2.933-.071,4.362-.114l2.015-.058c1.114-.032,2.209-.052,3.256-.059h.377c1.059,0,2.137.033,3.144.068.375.014.745.03,1.116.049,1.541.078,3.185.211,5.022.4,1.193.126,2.158.221,3.036.3.613.057,1.224.108,1.834.159l1.385.118c1.224.106,2.245.2,3.212.31l.221.024c.958.1,1.929.209,2.892.352.62.091,1.18.175,1.741.273s1.017.179,1.485.271l1.147.227c.585.117,1.187.236,1.783.344.951.172,1.97.352,2.982.5,1.087.159,2.167.31,3.172.447,1.281.176,2.327.339,3.293.511.564.1,1.15.217,1.8.35s1.274.287,1.835.425c.846.206,1.647.466,2.422.718l.551.179c.5.157,1.036.322,1.649.5.333.1.675.182,1.006.264l.255.064,2.9.633c.763.168,1.472.332,2.168.5.512.127,1.022.276,1.516.421l.135.039c1.045.3,2.047.691,2.89,1.028.909.364,1.835.75,2.831,1.182,1.017.44,2.026.91,3,1.364.827.384,1.678.819,2.677,1.367.421.232.831.486,1.227.733l.117.073c.382.238.739.461,1.076.692.361.248.732.508,1.1.775-.325-1.645-.667-3.439-1.014-5.364-1.663-9.232-1-7.846-2.464-15.958,0,0-1.694-9.379-1.693-15.261h0c-.026-.422-.042-.86-.047-1.31-3.356-1.241-6.864-2.421-10.525-3.51a163.6,163.6,0,0,0-39.456-6.678c-.22-.129-.5-.322-.482-.5.11-1.087,11.745-.041,20.256,1.2A171.8,171.8,0,0,1,151.9,68.93c1.035.268,5.7,1.507,12.29,3.846a24.972,24.972,0,0,1,.322-2.639q.125-.7.278-1.346h0l.011-.044c.014-.066.028-.133.043-.2l.006,0c.052-.218.106-.437.166-.664Q162.5,67.3,159.9,66.762a222.427,222.427,0,0,0-46.726-4.607c-.26-.117-.591-.3-.57-.471.133-1.1,13.913-.665,23.993.128,10.379.816,18.277,2.127,21.287,2.651.825.143,3.592.641,7.685,1.557.081-.246.167-.5.255-.749l-.013,0c.071-.189.145-.378.22-.566l.018-.049c.35-.922.721-1.767,1.1-2.55q-2.987-.541-6.088-1.012a204.847,204.847,0,0,0-44.972-1.752c-.257-.1-.586-.26-.578-.435.051-1.1,13.25-1.507,22.938-1.329,9.976.183,17.614,1.009,20.527,1.348.9.105,4.223.512,9.108,1.369.5-.892,1-1.831,1.5-2.831q.667-1.35,1.22-2.626a18.978,18.978,0,0,0,2.731-7.733,17.245,17.245,0,0,0-1.469-8.711,9.423,9.423,0,0,0-6.689-5.419c-2.382-.46-4.854.228-7.221.488-.357.039-.716.072-1.075.093l-.134,0c-.185,0-.371,0-.555-.006-.3-.012-.585-.051-.879-.078-.027,0-.111-.018-.181-.03-.091-.026-.235-.064-.263-.074-.134-.051-.266-.1-.4-.162-.016-.013-.03-.025-.057-.045-.046-.036-.091-.073-.137-.108l-.03-.035a6.782,6.782,0,0,1-.354-.723q-.526-1.026-1.041-2.107-.156-.33-.309-.658c-3.515-5.15-14.328-18.909-33.882-23.227-3.116-.688-24.6-5.071-43.176,8.587A50.932,50.932,0,0,0,62.142,29.922a7.423,7.423,0,0,1-5.548,1.514c-.235-.03-.409-.064-.452-.072-7.554-1.437-12.356.159-12.356.159a20.781,20.781,0,0,0-7.339,5.735c-6.5,8.12-4.167,18.461-4.027,19.037.987,4.067,2.661,5.516,4.213,8.4,3.608-.881,6.041-1.38,6.808-1.533,3.046-.608,11.039-2.14,21.552-3.247,10.21-1.075,24.174-1.895,24.318-.8.023.174-.311.363-.574.487A229.831,229.831,0,0,0,41.42,65.513c-1.333.309-2.643.63-3.942.957a23.6,23.6,0,0,1,.993,2.939c.086.316.164.629.237.94,3.341-.992,5.6-1.581,6.339-1.771,3.134-.8,11.361-2.84,22.247-4.615,10.573-1.725,25.081-3.434,25.311-2.353.037.173-.3.383-.563.524A249.42,249.42,0,0,0,43.11,71.057c-1.359.392-2.695.794-4.018,1.2a30.889,30.889,0,0,1,.423,5c6.527-2.821,11.171-4.431,12.218-4.786a191.868,191.868,0,0,1,18.676-5.247c8.88-2.026,21.072-4.148,21.278-3.074.033.172-.246.391-.468.539A183.167,183.167,0,0,0,50.13,75.008c-3.723,1.405-7.281,2.886-10.68,4.413-.028.444-.062.864-.1,1.252.054.847.108,1.715.116,1.957,0,0,.13,5.992.048,8.984h.005c-.04.86-.1,1.721-.158,2.573h0c-.622,5.138-1.707,10.4-2.1,15.66a.463.463,0,0,1,.078-.043S37.3,109.827,37.257,109.857ZM156.6,37.712a35.55,35.55,0,0,0,5.447-.6c.448-.059.9-.111,1.35-.141.076,0,.351,0,.437,0a6.451,6.451,0,0,1,1.134.132,4.755,4.755,0,0,1,2.379,1.541,11.162,11.162,0,0,1,2.1,6.629,13.888,13.888,0,0,1-.726,4.534,17.246,17.246,0,0,1-1.153,2.582c-.355.657-1,.586-1.11-.092a11.29,11.29,0,0,0-.928-3.12,10.728,10.728,0,0,0-4.345-4.262c-.807-.491-1.625-.966-2.38-1.535a9.95,9.95,0,0,1-1.919-2.229,10.728,10.728,0,0,1-1.164-2.373A.926.926,0,0,1,156.6,37.712Zm-37.812,9.223a7.859,7.859,0,0,1,.389-1.591.527.527,0,0,1,.159-.173.683.683,0,0,1,.585-.04c.445.161.275,1.417.4,2.367a5.644,5.644,0,0,0,3.469,4.234,7.089,7.089,0,0,0,4.623-.136,6.635,6.635,0,0,0,3.064-3.15c.459-1.033.586-2.113,1.13-2.169a.6.6,0,0,1,.424.157c.742.6.2,2.433.039,2.961a7.505,7.505,0,0,1-3.13,4.3,7.657,7.657,0,0,1-9.172-1.114A7.123,7.123,0,0,1,118.783,46.935Zm-65.254-8.3A13.064,13.064,0,0,1,52.157,41.5,11.759,11.759,0,0,1,49.9,44.18a33.181,33.181,0,0,1-2.806,1.84,12.692,12.692,0,0,0-5.124,5.127,13.9,13.9,0,0,0-1.092,3.769c-.126.821-.89.9-1.31.1A21.5,21.5,0,0,1,38.2,51.886a17.254,17.254,0,0,1-.859-5.5c.025-2.624.79-5.952,2.478-8.008a5.543,5.543,0,0,1,2.806-1.847,7.312,7.312,0,0,1,1.337-.152c.1,0,.426.006.515.005.533.04,1.064.106,1.593.181a40.9,40.9,0,0,0,6.427.763A1.124,1.124,0,0,1,53.529,38.633Zm26.941,14.9a7.656,7.656,0,0,1-9.224.524A7.5,7.5,0,0,1,68.4,49.565c-.124-.537-.55-2.4.228-2.954a.612.612,0,0,1,.434-.129c.539.091.6,1.177.988,2.238a6.64,6.64,0,0,0,2.857,3.339,7.086,7.086,0,0,0,4.6.432,5.646,5.646,0,0,0,3.734-4c.186-.94.1-2.2.552-2.336a.678.678,0,0,1,.581.077.523.523,0,0,1,.148.183,7.863,7.863,0,0,1,.286,1.613A7.119,7.119,0,0,1,80.47,53.534Zm26.894,1.15c3.737,2.938.5,9.182-2.627,11.285-4.122,1.587-8.956-2.476-9.986-6.331C92.25,54.092,104.235,53.771,107.364,54.684Z"/>
      <path class="c" d="M156.886,41.153a9.95,9.95,0,0,0,1.919,2.229c.755.569,1.573,1.044,2.38,1.535a10.728,10.728,0,0,1,4.345,4.262,11.29,11.29,0,0,1,.928,3.12c.107.678.755.749,1.11.092a17.246,17.246,0,0,0,1.153-2.582,13.888,13.888,0,0,0,.726-4.534,11.162,11.162,0,0,0-2.1-6.629,4.755,4.755,0,0,0-2.379-1.541,6.451,6.451,0,0,0-1.134-.132c-.086,0-.361,0-.437,0-.451.03-.9.082-1.35.141a35.55,35.55,0,0,1-5.447.6.926.926,0,0,0-.873,1.068A10.728,10.728,0,0,0,156.886,41.153Z"/>
      <path class="c" d="M104.737,65.969c3.129-2.1,6.364-8.347,2.627-11.285-3.129-.913-15.114-.592-12.613,4.954C95.781,63.493,100.615,67.556,104.737,65.969Z"/>
      <path class="c" d="M82.376,46.229a.678.678,0,0,0-.581-.077c-.454.132-.366,1.4-.552,2.336a5.646,5.646,0,0,1-3.734,4,7.086,7.086,0,0,1-4.6-.432,6.64,6.64,0,0,1-2.857-3.339c-.392-1.061-.449-2.147-.988-2.238a.612.612,0,0,0-.434.129c-.778.555-.352,2.417-.228,2.954a7.5,7.5,0,0,0,2.848,4.493,7.656,7.656,0,0,0,9.224-.524,7.119,7.119,0,0,0,2.34-5.509,7.863,7.863,0,0,0-.286-1.613A.523.523,0,0,0,82.376,46.229Z"/>
      <path class="c" d="M129.937,53.7a7.505,7.505,0,0,0,3.13-4.3c.158-.528.7-2.359-.039-2.961a.6.6,0,0,0-.424-.157c-.544.056-.671,1.136-1.13,2.169a6.635,6.635,0,0,1-3.064,3.15,7.089,7.089,0,0,1-4.623.136,5.644,5.644,0,0,1-3.469-4.234c-.127-.95.043-2.206-.4-2.367a.683.683,0,0,0-.585.04.527.527,0,0,0-.159.173,7.859,7.859,0,0,0-.389,1.591,7.123,7.123,0,0,0,1.982,5.648A7.657,7.657,0,0,0,129.937,53.7Z"/>
      <path class="c" d="M52.5,37.333a40.9,40.9,0,0,1-6.427-.763c-.529-.075-1.06-.141-1.593-.181-.089,0-.414-.009-.515-.005a7.312,7.312,0,0,0-1.337.152,5.543,5.543,0,0,0-2.806,1.847c-1.688,2.056-2.453,5.384-2.478,8.008a17.254,17.254,0,0,0,.859,5.5,21.5,21.5,0,0,0,1.362,3.134c.42.8,1.184.717,1.31-.1a13.9,13.9,0,0,1,1.092-3.769,12.692,12.692,0,0,1,5.124-5.127A33.181,33.181,0,0,0,49.9,44.18,11.759,11.759,0,0,0,52.157,41.5a13.064,13.064,0,0,0,1.372-2.863A1.124,1.124,0,0,0,52.5,37.333Z"/>
      <path class="c" d="M37.336,109.8a.463.463,0,0,0-.078.043v.011C37.3,109.827,37.337,109.8,37.336,109.8Z"/>
      <path class="b" d="M178.654,120.4l.076.062-.078-.068Z"/>
      <path class="b" d="M33.1,112.38c1.958-1.15,3.785-2.276,4.161-2.523l0,.015.165-.078.219-.1c.186-.091.339-.164.494-.228,1.049-.432,1.91-.767,2.713-1.056s1.58-.589,2.309-.874l.874-.347c1.6-.639,3.254-1.3,5.017-1.807l.788-.228c.741-.211,1.466-.42,2.17-.64.891-.277,1.775-.606,2.63-.924l2.021-.8c.309-.122.607-.241.908-.349l.35-.131c.305-.114.564-.211.825-.293.9-.285,1.592-.5,2.26-.7.384-.111.7-.2,1.029-.283l.291-.074c.222-.059.462-.121.7-.172l.775-.17c1.142-.249,2.32-.5,3.491-.731l.129-.025c1.377-.267,2.8-.542,4.164-.858l.489-.115c.335-.078.688-.161,1.036-.237l.487-.109c.357-.08.715-.16,1.072-.227l1.525-.29c.447-.084.908-.151,1.355-.215l.509-.074c.2-.03.407-.049.6-.068l.433-.044c.19-.022.368-.041.547-.055l.423-.036c.411-.035.754-.064,1.092-.08,1-.049,2.087-.1,3.193-.1,2.3-.015,4.387-.04,6.374-.079,1.455-.028,2.933-.071,4.362-.114l2.015-.058c1.114-.032,2.209-.052,3.256-.059h.377c1.059,0,2.137.033,3.144.068.375.014.745.03,1.116.049,1.541.078,3.185.211,5.022.4,1.193.126,2.158.221,3.036.3.613.057,1.224.108,1.834.159l1.385.118c1.224.106,2.245.2,3.212.31l.221.024c.958.1,1.929.209,2.892.352.62.091,1.18.175,1.741.273s1.017.179,1.485.271l1.147.227c.585.117,1.187.236,1.783.344.951.172,1.97.352,2.982.5,1.087.159,2.167.31,3.172.447,1.281.176,2.327.339,3.293.511.564.1,1.15.217,1.8.35s1.274.287,1.835.425c.846.206,1.647.466,2.422.718l.551.179c.5.157,1.036.322,1.649.5.333.1.675.182,1.006.264l.255.064,2.9.633c.763.168,1.472.332,2.168.5.512.127,1.022.276,1.516.421l.135.039c1.045.3,2.047.691,2.89,1.028.909.364,1.835.75,2.831,1.182,1.017.44,2.026.91,3,1.364.827.384,1.678.819,2.677,1.367.421.232.831.486,1.227.733l.117.073c.233.145.572.361.964.619-.212-.8-.317-4.9-.317-4.9-.041-1.642-.2-3.1-.526-6.011-.219-1.977-.442-3.491-.567-4.381-.176-1.251-.422-2.811-.851-5.184,0,0-1.694-9.379-1.693-15.261h0c-.026-.422-.042-.86-.047-1.31-3.356-1.241-6.864-2.421-10.525-3.51a163.6,163.6,0,0,0-39.456-6.678c-.22-.129-.5-.322-.482-.5.11-1.087,11.745-.041,20.256,1.2A171.8,171.8,0,0,1,151.9,68.93c1.035.268,5.7,1.507,12.29,3.846a24.972,24.972,0,0,1,.322-2.639q.125-.7.278-1.346h0l.011-.044c.014-.066.028-.133.043-.2l.006,0c.052-.218.106-.437.166-.664Q162.5,67.3,159.9,66.762a222.427,222.427,0,0,0-46.726-4.607c-.26-.117-.591-.3-.57-.471.133-1.1,13.913-.665,23.993.128,10.379.816,18.277,2.127,21.287,2.651.825.143,3.592.641,7.685,1.557.081-.246.167-.5.255-.749l-.013,0c.071-.189.145-.378.22-.566l.018-.049c.35-.922.721-1.767,1.1-2.55q-2.987-.541-6.088-1.012a204.847,204.847,0,0,0-44.972-1.752c-.257-.1-.586-.26-.578-.435.051-1.1,13.25-1.507,22.938-1.329,9.976.183,17.614,1.009,20.527,1.348.9.105,4.223.512,9.108,1.369.5-.892,1-1.831,1.5-2.831q.667-1.35,1.22-2.626a18.978,18.978,0,0,0,2.731-7.733,17.245,17.245,0,0,0-1.469-8.711,9.423,9.423,0,0,0-6.689-5.419c-2.382-.46-4.854.228-7.221.488-.357.039-.716.072-1.075.093l-.134,0c-.185,0-.371,0-.555-.006-.3-.012-.585-.051-.879-.078-.027,0-.111-.018-.181-.03-.091-.026-.235-.064-.263-.074-.134-.051-.266-.1-.4-.162-.016-.013-.03-.025-.057-.045-.046-.036-.091-.073-.137-.108l-.03-.035a6.782,6.782,0,0,1-.354-.723q-.526-1.026-1.041-2.107-.156-.33-.309-.658c-3.515-5.15-14.328-18.909-33.882-23.227-3.116-.688-24.6-5.071-43.176,8.587A50.932,50.932,0,0,0,62.142,29.922a7.423,7.423,0,0,1-5.548,1.514c-.235-.03-.409-.064-.452-.072-7.554-1.437-12.356.159-12.356.159a20.781,20.781,0,0,0-7.339,5.735c-6.5,8.12-4.167,18.461-4.027,19.037.987,4.067,2.661,5.516,4.213,8.4,3.608-.881,6.041-1.38,6.808-1.533,3.046-.608,11.039-2.14,21.552-3.247,10.21-1.075,24.174-1.895,24.318-.8.023.174-.311.363-.574.487A229.831,229.831,0,0,0,41.42,65.513c-1.333.309-2.643.63-3.942.957a23.6,23.6,0,0,1,.993,2.939c.086.316.164.629.237.94,3.341-.992,5.6-1.581,6.339-1.771,3.134-.8,11.361-2.84,22.247-4.615,10.573-1.725,25.081-3.434,25.311-2.353.037.173-.3.383-.563.524A249.42,249.42,0,0,0,43.11,71.057c-1.359.392-2.695.794-4.018,1.2a30.889,30.889,0,0,1,.423,5c6.527-2.821,11.171-4.431,12.218-4.786a191.868,191.868,0,0,1,18.676-5.247c8.88-2.026,21.072-4.148,21.278-3.074.033.172-.246.391-.468.539A183.167,183.167,0,0,0,50.13,75.008c-3.723,1.405-7.281,2.886-10.68,4.413-.028.444-.062.864-.1,1.252.054.847.108,1.715.116,1.957,0,0,.13,5.992.048,8.984h.005c-.04.86-.1,1.721-.158,2.573h0c-.622,5.138-1.707,10.4-2.1,15.66-.613.361-4.99,3.1-8.194,4.8l-.3.159-.006.035C30.005,114.157,31.469,113.335,33.1,112.38Z"/>
      <path class="b" d="M170.635,113.648c1.065.817,2.131,1.707,3.5,2.868q1.292,1.095,2.4,2.05c-.581-.5-1.087-.948-1.49-1.3C175.049,117.264,172.88,115.357,170.635,113.648Z"/>
      <path class="c" d="M178.73,120.457l.02.016c-.031-.028-.067-.058-.1-.086v0Z"/>
      <path class="c" d="M178.9,120.6c-.047-.042-.1-.089-.151-.131l-.02-.016Z"/>
      <path class="c" d="M168.133,111.867c.023.086.046.145.071.146a.31.31,0,0,1,.056,0,.511.511,0,0,1,.305.166,2.413,2.413,0,0,0,.415.263c.535.368,1.1.781,1.655,1.206-.76-.584-1.52-1.131-2.39-1.708Z"/>
      <path class="c" d="M204.143,171.831c-.066-1.107-.2-2.206-.331-3.323-.042-.349-.084-.7-.123-1.047-.085-.755-.162-1.522-.244-2.337l-.022-.217c-.07-.691-.142-1.4-.221-2.1l-.064-.57c-.147-1.309-.3-2.663-.389-3.976-.02-.306-.037-.613-.055-.935-.022-.408-.045-.828-.077-1.239-.067-.891-.152-1.716-.257-2.522-.04-.306-.1-.634-.179-1.034l-.065-.316c-.059-.3-.123-.605-.2-.906l-.281-1.07c-.11-.417-.24-.807-.4-1.263-.471-1.333-1.055-2.913-1.8-4.527a27.587,27.587,0,0,0-2.5-4.481c-.368-.518-.76-1.041-1.139-1.545l-.253-.337c-.379-.506-.745-1.027-1.1-1.531l-.371-.525c-.27-.383-.544-.764-.824-1.148-.3-.4-.63-.807-.926-1.16-.511-.617-1.057-1.232-1.587-1.828l-.125-.138c-1.134-1.276-2.3-2.577-3.47-3.863l-.379-.422c-.441-.49-.9-1-1.4-1.49l-.144-.142c-.272-.27-.554-.547-.841-.815-.343-.321-.7-.63-1.123-1-.554-.476-1.146-.931-1.669-1.332l-.565-.437c-.352-.274-2.169-1.707-2.169-1.707l-.1-.078c.048.042.1.089.151.131l-.171-.147-.076-.062,0-.006c-.79-.676-1.5-1.288-2.113-1.823q-1.116-.957-2.4-2.05c-1.369-1.161-2.435-2.051-3.5-2.868-.558-.425-1.12-.838-1.655-1.206a2.413,2.413,0,0,1-.415-.263.511.511,0,0,0-.305-.166.31.31,0,0,0-.056,0c-.025,0-.048-.06-.071-.146-.392-.258-.731-.474-.964-.619l-.117-.073c-.4-.247-.806-.5-1.227-.733-1-.548-1.85-.983-2.677-1.367-.978-.454-1.987-.924-3-1.364-1-.432-1.922-.818-2.831-1.182-.843-.337-1.845-.723-2.89-1.028l-.135-.039c-.494-.145-1-.294-1.516-.421-.7-.171-1.405-.335-2.168-.5l-2.9-.633-.255-.064c-.331-.082-.673-.166-1.006-.264-.613-.179-1.154-.344-1.649-.5l-.551-.179c-.775-.252-1.576-.512-2.422-.718-.561-.138-1.2-.292-1.835-.425s-1.233-.247-1.8-.35c-.966-.172-2.012-.335-3.293-.511-1-.137-2.085-.288-3.172-.447-1.012-.149-2.031-.329-2.982-.5-.6-.108-1.2-.227-1.783-.344l-1.147-.227c-.468-.092-.938-.174-1.485-.271s-1.121-.182-1.741-.273c-.963-.143-1.934-.248-2.892-.352l-.221-.024c-.967-.1-1.988-.2-3.212-.31l-1.385-.118c-.61-.051-1.221-.1-1.834-.159-.878-.078-1.843-.173-3.036-.3-1.837-.192-3.481-.325-5.022-.4-.371-.019-.741-.035-1.116-.049-1.007-.035-2.085-.068-3.144-.068h-.377c-1.047.007-2.142.027-3.256.059l-2.015.058c-1.429.043-2.907.086-4.362.114-1.987.039-4.072.064-6.374.079-1.106.006-2.19.053-3.193.1-.338.016-.681.045-1.092.08l-.423.036c-.179.014-.357.033-.547.055l-.433.044c-.2.019-.4.038-.6.068l-.509.074c-.447.064-.908.131-1.355.215l-1.525.29c-.357.067-.715.147-1.072.227l-.487.109c-.348.076-.7.159-1.036.237l-.489.115c-1.364.316-2.787.591-4.164.858l-.129.025c-1.171.226-2.349.482-3.491.731l-.775.17c-.24.051-.48.113-.7.172l-.291.074c-.327.082-.645.172-1.029.283-.668.2-1.365.41-2.26.7-.261.082-.52.179-.825.293l-.35.131c-.3.108-.6.227-.908.349l-2.021.8c-.855.318-1.739.647-2.63.924-.7.22-1.429.429-2.17.64l-.788.228c-1.763.511-3.414,1.168-5.017,1.807l-.874.347c-.729.285-1.516.586-2.309.874s-1.664.624-2.713,1.056c-.155.064-.308.137-.494.228l-.219.1-.165.078,0-.015c-.376.247-2.2,1.373-4.161,2.523-1.627.955-3.091,1.777-4.337,2.459l.006-.035c-.5.264-1.273.686-2.252,1.3-.433.27-1.033.664-2.206,1.454-.686.462-1.483,1-2.268,1.518-.726.48-1.538.993-2.479,1.565l-.306.184c-.242.144-.492.293-.725.445-.625.405-1.1.725-1.529,1.037a18.9,18.9,0,0,0-2.055,1.785l-.091.088c-1.113,1.069-2.235,2.213-3.53,3.6-.294.314-.566.634-.879,1.011l-.245.291c-.2.234-.4.476-.589.719-.62.8-1.1,1.456-1.5,2.069a44.593,44.593,0,0,0-2.456,4.29l-.6,1.188c-.151.3-.306.6-.437.913-.336.8-.656,1.612-.98,2.5-.253.694-.513,1.452-.793,2.314-.245.754-.432,1.53-.583,2.152-.179.738-.386,1.61-.564,2.49-.127.63-.245,1.272-.359,1.892l-.037.2c-.322,1.749-.576,3.22-.779,4.715a32.687,32.687,0,0,0-.23,3.56c-.009.308-.018.616-.03.925-.055,1.5-.111,3.052-.156,4.584-.009.354-.02.673-.04.99l-.018.25c-.021.305-.04.62-.042.928l0,.351c-.006.7-.012,1.425.04,2.168l.027.405c.034.5.069,1.014.121,1.517.037.364.085.756.162,1.147.051.259.115.521.177.766l.03.118a10.913,10.913,0,0,1,.246,1.367,11.421,11.421,0,0,1,.05,1.348l0,.265a8.46,8.46,0,0,0,.032,1.126,11.242,11.242,0,0,0,.242,1.4c.074.3.175.609.279.911l.06.173c.127.379.217.67.29.94.128.475.241.96.35,1.432l.263,1.132c.114.5.232,1,.369,1.508.159.571.355,1.133.529,1.629.072.206.144.412.215.622.226.669.4,1.374.567,2.064q.268,1.1.545,2.2l1.581-.4-1.552.511c.09.358.183.727.289,1.087.139.473.286.944.4,1.3.182.577.394,1.162.6,1.719l.177.491c.249.69.447,1.412.592,1.964.2.74.423,1.532.7,2.423a8.346,8.346,0,0,0,.526,1.281,2.95,2.95,0,0,0,.476,1.483l.136.222c.133.222.283.453.464.712l.13.186c.208.3.426.6.608.914a5.539,5.539,0,0,1,.282.6l.046.108a6.782,6.782,0,0,0,.688,1.249c.216.31.451.619.68.917.216.282.438.573.637.863.106.153.2.308.3.465l.275.426c.217.328.441.666.674.993a22.082,22.082,0,0,0,1.808,2.16c.189.2.395.405.642.643l.235.23c.311.311.643.643.98.968.3.288.6.573.9.854l.1.094c.292.274.593.557.907.824A26.824,26.824,0,0,0,21.3,217.5c.779.526,1.622,1.026,2.3,1.427.564.335,1.158.658,1.731.967l.736.4c.706.389,1.474.8,2.418,1.284.9.467,1.8.923,2.646,1.355l1.1.555c.467.235.947.476,1.418.719.242.126.481.263.777.432l.344.2c.472.266.939.523,1.387.765.708.382,1.435.763,2.141,1.133l.563.3c.8.419,1.626.851,2.449,1.267,1.03.519,2.017.982,3.017,1.415.863.372,1.753.736,2.643,1.08,1.06.41,2.131.789,3.041,1.108,1.565.546,3.636,1.254,5.781,1.89q1.4.417,2.805.822c1.1.321,2.238.652,3.35.985l.2.061c.936.279,1.9.567,2.847.863.878.275,1.762.566,2.673.867,2.03.67,4.1,1.244,6.1,1.8l.931.262c.62.175,1.257.355,1.891.519,1.048.271,2.11.529,3.154.768,1.126.258,2.278.5,3.393.729.9.188,1.837.383,2.752.585,1.132.252,2.074.452,2.965.628.685.137,1.39.253,2.071.363l.64.1c1.608.266,3.248.509,4.833.744l.958.142c1.6.238,3.228.4,4.882.565l.844.085c.773.077,1.608.154,2.483.2l.413.018c.786.029,1.585.049,2.361.068l.856.02c.62.015,1.246.026,1.855.036l1.072.019c.243,0,.5.007.775.007l.953-.006c.4,0,.814-.006,1.218-.02l.232-.009c.438-.016.89-.032,1.331-.06.531-.034,1.1-.075,1.794-.132,1.115-.091,2.087-.192,2.973-.31,1.044-.137,2.277-.308,3.507-.529,1.136-.2,2.24-.448,3.262-.682.839-.191,1.684-.4,2.5-.606l.362-.091c.309-.076.613-.156.915-.236l.508-.132c.478-.125.972-.255,1.446-.4l1.015-.3c.214-.064.429-.137.632-.207l.208-.072c.546-.185,1.087-.388,1.611-.587l.121-.046c.856-.323,1.713-.668,2.59-1.022l.87-.35.6-.227c.718-.268,1.459-.545,2.174-.837l.626-.257c.742-.3,1.509-.618,2.254-.934.919-.391,1.844-.8,2.737-1.193s1.822-.8,2.743-1.195l.96-.4c.538-.224,1.1-.456,1.639-.694.837-.366,1.7-.757,2.576-1.162l1.076-.5c1.346-.631,2.737-1.282,4.13-1.883,2.015-.869,3.829-1.635,5.543-2.339.653-.27,1.31-.534,1.967-.8,1.143-.46,2.325-.937,3.469-1.425.387-.165.773-.333,1.158-.5l.168-.074c.461-.2.921-.4,1.384-.6l1.071-.451c.533-.223,1.086-.456,1.627-.69l.126-.055c.8-.345,1.7-.735,2.541-1.176l.177-.091c.384-.2.779-.407,1.154-.623.456-.263.935-.551,1.465-.882.88-.547,1.663-1.129,2.438-1.7.311-.232.612-.479.9-.719l.273-.225c.289-.238.578-.476.87-.71.711-.568,1.465-1.174,2.182-1.787.244-.208.487-.426.776-.685l.223-.2c.1-.1.206-.193.306-.29l.246-.235c.135-.127.273-.258.427-.426.6-.653,1.212-1.328,1.768-2.047l.1-.135c.223-.286.452-.583.658-.885l.392-.575c.107-.156.2-.319.31-.51l.061-.107a22.486,22.486,0,0,0,2.1-4.676c.194-.608.38-1.22.565-1.829l.027-.087c.264-.868.537-1.765.831-2.643.139-.414.267-.837.4-1.285.08-.263.159-.526.241-.787l.247-.782c.146-.465.292-.929.446-1.4.521-1.59.986-3.181,1.411-4.667l.3-1.046c.036-.13.067-.26.1-.42l.092-.373c.035-.138.069-.275.1-.418.135-.68.29-1.482.421-2.276.121-.726.26-1.585.371-2.462.1-.757.158-1.5.222-2.394.134-1.89.187-3.357.175-4.76C204.282,174.857,204.232,173.3,204.143,171.831Z"/>
      <path class="c" d="M178.652,120.389v0q-.951-.824-2.112-1.821C177.153,119.1,177.862,119.713,178.652,120.389Z"/>
      <path class="c" d="M37.258,109.846c.394-5.264,1.479-10.522,2.1-15.66h0c.062-.852.118-1.713.158-2.573h-.005c.082-2.992-.051-8.984-.048-8.984-.008-.242-.062-1.11-.116-1.957.039-.388.073-.808.1-1.252,3.4-1.527,6.957-3.008,10.68-4.413A183.167,183.167,0,0,1,91.219,64.694c.222-.148.5-.367.468-.539-.206-1.074-12.4,1.048-21.278,3.074a191.868,191.868,0,0,0-18.676,5.247c-1.047.355-5.691,1.965-12.218,4.786a30.889,30.889,0,0,0-.423-5c1.323-.406,2.659-.808,4.018-1.2a249.42,249.42,0,0,1,48.932-8.923c.266-.141.6-.351.563-.524-.23-1.081-14.738.628-25.311,2.353-10.886,1.775-19.113,3.814-22.247,4.615-.742.19-3,.779-6.339,1.771-.073-.311-.151-.624-.237-.94a23.6,23.6,0,0,0-.993-2.939c1.3-.327,2.609-.648,3.942-.957A229.831,229.831,0,0,1,88.737,59.6c.263-.124.6-.313.574-.487-.144-1.093-14.108-.273-24.318.8-10.513,1.107-18.506,2.639-21.552,3.247-.767.153-3.2.652-6.808,1.533-1.552-2.881-3.226-4.33-4.213-8.4-.14-.576-2.476-10.917,4.027-19.037a20.781,20.781,0,0,1,7.339-5.735s4.8-1.6,12.356-.159c.043.008.217.042.452.072a7.423,7.423,0,0,0,5.548-1.514A50.932,50.932,0,0,1,75.683,14.893c18.571-13.658,40.06-9.275,43.176-8.587,19.554,4.318,30.367,18.077,33.882,23.227q.153.328.309.658.513,1.082,1.041,2.107a6.782,6.782,0,0,0,.354.723l.03.035c.046.035.091.072.137.108.027.02.041.032.057.045.13.059.262.111.4.162.028.01.172.048.263.074.07.012.154.027.181.03.294.027.583.066.879.078.184.008.37.008.555.006l.134,0c.359-.021.718-.054,1.075-.093,2.367-.26,4.839-.948,7.221-.488a9.423,9.423,0,0,1,6.689,5.419,17.245,17.245,0,0,1,1.469,8.711,18.978,18.978,0,0,1-2.731,7.733q-.555,1.274-1.22,2.626c-.493,1-1,1.939-1.5,2.831-4.885-.857-8.2-1.264-9.108-1.369-2.913-.339-10.551-1.165-20.527-1.348-9.688-.178-22.887.228-22.938,1.329-.008.175.321.334.578.435a204.847,204.847,0,0,1,44.972,1.752q3.107.466,6.088,1.012c-.376.783-.747,1.628-1.1,2.55l-.018.049c-.075.188-.149.377-.22.566l.013,0c-.088.253-.174.5-.255.749-4.093-.916-6.86-1.414-7.685-1.557-3.01-.524-10.908-1.835-21.287-2.651-10.08-.793-23.86-1.226-23.993-.128-.021.175.31.354.57.471A222.427,222.427,0,0,1,159.9,66.762q2.6.54,5.114,1.124c-.06.227-.114.446-.166.664l-.006,0c-.015.065-.029.132-.043.2l-.011.044h0q-.153.65-.278,1.346a24.972,24.972,0,0,0-.322,2.639c-6.59-2.339-11.255-3.578-12.29-3.846a171.8,171.8,0,0,0-17.977-3.593c-8.511-1.24-20.146-2.286-20.256-1.2-.018.174.262.367.482.5a163.6,163.6,0,0,1,39.456,6.678c3.661,1.089,7.169,2.269,10.525,3.51,0,.45.021.888.047,1.31h0c0,5.882,1.693,15.261,1.693,15.261.429,2.373.675,3.933.851,5.184.125.89.348,2.4.567,4.381.323,2.913.485,4.369.526,6.011,0,0,.1,4.1.317,4.9l.112.073c.87.577,1.63,1.124,2.39,1.708,2.245,1.709,4.414,3.616,4.414,3.616.4.354.909.8,1.49,1.3q1.161,1,2.112,1.821a85.946,85.946,0,0,1-4.448-17.143c-.723-4.858-1.873-15.637-2.56-19.255,0,0-.453-2.385-.77-4.771-.1-.765-.175-1.4-.223-1.837,5.146,2.142,9.872,4.4,14.153,6.634.442-.11.939-.309,1-.69.114-.7-1.229-2.229-10.544-6.222-1.782-.764-3.51-1.469-5.168-2.121a27.716,27.716,0,0,1-.448-3.89q-.03-.7-.026-1.378h0c.043-.2.092-.431.143-.67a220.854,220.854,0,0,1,27.068,8.809c.524-.134,1.113-.36,1.187-.745.136-.714-1.452-2.172-12.477-5.684-5.715-1.82-10.969-3.243-15.343-4.317q.526-2.111,1.055-4.22a206.473,206.473,0,0,1,25.865,7.01c.492-.166,1.039-.426,1.083-.815.081-.718-1.537-2.074-12.317-4.9-5.215-1.369-10.026-2.417-14.1-3.205,1.183-1.318,6.759-7.8,5.988-16.947-.6-7.065-4.361-12.9-6.719-14.043a14.428,14.428,0,0,0-1.615-.644,14.2,14.2,0,0,0-4.34-.63c-2.226-.05-4.436-.08-6.725-.079l-.41-.607q-1.482-2.211-2.829-4.406A61.949,61.949,0,0,0,121.6,1.709C99.05-3.85,80.939,5.67,75.734,8.7A63.474,63.474,0,0,0,57.089,25.3c-1.7-.24-13.968-1.761-23.432,7.078-8.212,7.669-11.569,20.574-7.747,27.95.857,1.654,2.334,3.535,3.59,6.226-4.107,1.139-8.88,2.575-14.02,4.337C4.337,74.709,2.741,76.211,2.886,76.92c.078.383.677.592,1.21.711A229.852,229.852,0,0,1,30.271,68.4a23.047,23.047,0,0,1,.823,2.78c.091.4.178.825.3,1.458-4.344,1.434-9.453,3.244-14.957,5.438C5.094,82.6,3.54,84.2,3.742,84.9c.11.378.75.548,1.314.633A244.916,244.916,0,0,1,31.794,74.618c.15.746.336,1.656.574,2.806q.315,1.524.588,2.809-2.508,1.189-5.2,2.554c-9.5,4.844-10.793,6.488-10.615,7.18.1.374.637.526,1.113.594C22.792,87.81,27.844,85,33.39,82.271c.094.434.179.828.255,1.178h0a7.214,7.214,0,0,1,.056.88A51.831,51.831,0,0,1,32.221,95.6L28.765,114.8l.3-.159C32.268,112.948,36.645,110.207,37.258,109.846Z"/>
      <path class="c" d="M33.1,112.38c1.958-1.15,3.785-2.276,4.161-2.523v-.011c-.613.361-4.99,3.1-8.194,4.8l-.3.159-.006.035C30.005,114.157,31.469,113.335,33.1,112.38Z"/>
    </g>
    <g>
      <g>
        <path class="a" d="M55.35,150.174q.079,9.184-9.253,12.449l-3.008.025q-9.659.084-13.583-12.251l-.038-4.486a13,13,0,0,1,3.667-9.392,12.125,12.125,0,0,1,9.32-4.584Q55.193,131.825,55.35,150.174Zm-21.383-2.807q.071,8.181,7.212,10.055l1.865-.016q7.488-.82,7.446-5.694.369,0,.737-2.241l-.394-.753-.012-1.5q-.091-10.485-7.2-10.424l-.757.007q-8.217,1.864-8.185,5.683a9.105,9.105,0,0,0-.721,4.123Z"/>
        <path class="a" d="M74.443,131.9q.546-.006,1.136,1.116l.016,1.865a.662.662,0,0,1-.733.763l-4.5.038q-2.622.022-2.583,4.509l.184,21.357q0,.528-1.117,1.136l-.369,0q-1.935.017-2.262-1.106a27.859,27.859,0,0,1,.339-5.633q-.44-6.084-.48-10.852l-.039-4.486q-.039-4.5-1.534-4.491l-5.612.049q-.546,0-1.136-1.117l-.013-1.5a2.531,2.531,0,0,1,2.609-1.518Z"/>
        <path class="a" d="M96.686,131.9q.546-.006,1.136,1.116l.016,1.865a.662.662,0,0,1-.733.763l-4.5.038q-2.622.022-2.583,4.509l.184,21.357q0,.528-1.117,1.136l-.369,0q-1.935.017-2.262-1.106a27.859,27.859,0,0,1,.339-5.633q-.439-6.084-.48-10.852l-.039-4.486q-.039-4.5-1.534-4.491l-5.612.049q-.546,0-1.136-1.117l-.013-1.5a2.531,2.531,0,0,1,2.609-1.518Z"/>
        <path class="a" d="M117.088,131.747a2.006,2.006,0,0,1,2.265,1.476q.02,2.251-5.223,2.3-8.989.076-8.968,2.7a12.005,12.005,0,0,0-.343,2.994l.006.757q.036,4.116,4.522,4.078,1.967-.387,2.248-.389,4.119.23,4.136,2.2.02,2.251-8.214,2.323a6.2,6.2,0,0,0-2.942,5.638q.027,3.13,4.146,3.342l5.981-.051,2.249-.389a2.42,2.42,0,0,1,1.905,2.6l0,.369q.006.651-1.873,1.142-6.653-.312-10.858-.276l-4.5.039-.386-1.879-.138-16.1q-.034-3.941.266-11.983a4.384,4.384,0,0,1,2.245-.776Z"/>
        <path class="a" d="M129.422,132.092q8.25-.071,10.93,6.663l.4,3.726a9.644,9.644,0,0,1-5.166,9.035l.013,1.5q1.161,5.989,6.051,5.948l.385,1.862q.006.6-1.482,1.525l-1.5.013q-5.049.043-6.43-7.07a6.814,6.814,0,0,0-3.021-1.47q-2.984.924-2.936,6.4l.016,1.865-1.862.4-1.126.009q-1.13-.376-1.145-2.242l-.232-26.969q.36-1.13,2.242-1.146Zm.035,4.135q-4.116.035-4.091,3.026l.058,6.738q.033,3.747,3.041,3.721l1.108-.009q7.48-1.754,7.437-6.8l0-.387q-.039-4.573-4.544-6.7l-.753.393Z"/>
        <path class="a" d="M171.514,146.2a28.323,28.323,0,0,0-5.12.352l-.074.019h-.075a4.018,4.018,0,0,0-2.776.845c-.578.543,1.031,2.493,1.031,2.493l1.1-.009.012,1.39-.015.07c-.913,4.292-2.775,6.48-5.532,6.5H160l-.068-.014c-3.861-.8-5.83-2.557-5.852-5.213a7.372,7.372,0,0,1,1.394-4l.142-.218.253-.06c2.031-.482,4.449-1.343,4.438-2.709v-.155c-2.349-4.073-2.352-4.5-2.355-4.777v-.055l.008-.054c.511-3.186,2.226-3.869,3.575-3.88h.046a2.808,2.808,0,0,1,2.886,1.7l.048.117.015,1.77-2.169.019-.824-.543a1.215,1.215,0,0,0-.316.273l.009,1.059a5.426,5.426,0,0,0,1.1,1.215l1.892-.017c.982-.008,2.32-.3,2.632-2.721l-.014-1.544c-.47-2.463-2.18-3.661-5.224-3.661h-.1c-3.585.031-5.518,2.009-5.91,6.046a10.208,10.208,0,0,0,.974,3.983l.4.908-.669.006v.108l-.379.178a6.728,6.728,0,0,0-4.188,6.667c.751,5.321,3.231,7.909,7.58,7.909h.095a14,14,0,0,0,3.4-.643c3.71-1.789,5.493-5.063,5.45-10.006l0-.651,1.971-.017a1.556,1.556,0,0,0,1.239-.451,2.371,2.371,0,0,0,.405-1.566v-.128Z"/>
      </g>
      <g>
        <path class="a" d="M50.189,173.2l.008.919q.006.678-1.388,1.412l-1.4.012q-3.269-3.69-5.609-3.67l-.481,0q-6.511.8-6.473,5.174l0,.459q.056,6.518,8.913,6.441,7,2.958,7.065,10.2l0,.459q-2.291,10.737-9.684,10.8l-1.859.016q-4.352.037-9.82-5.056l-.008-.918q-.022-2.515,1.831-3.275l2.34-.02q3.755,4.145,7.013,4.117,4.614-.039,5.05-7.939-.036-4.2-9.813-4.115-6.082-2.857-6.134-8.784l-.016-1.881q-.075-8.7,11.088-10.332Q46.354,167.173,50.189,173.2Z"/>
        <path class="a" d="M75.354,166.924q.678-.006,1.412,1.388l.02,2.318a.823.823,0,0,1-.911.949l-5.6.048q-3.258.027-3.21,5.6l.228,26.551q.006.657-1.388,1.412l-.459,0q-2.406.021-2.812-1.376a34.736,34.736,0,0,1,.421-7q-.546-7.563-.6-13.49l-.048-5.577q-.048-5.6-1.907-5.583l-6.977.06q-.678.006-1.412-1.388l-.016-1.859a3.146,3.146,0,0,1,3.243-1.887Z"/>
        <path class="a" d="M109.778,189.441q.1,11.416-11.5,15.476l-3.74.032q-12.006.1-16.885-15.231L77.6,184.14a16.165,16.165,0,0,1,4.558-11.675q4.9-5.641,11.588-5.7Q109.582,166.63,109.778,189.441ZM83.2,185.951q.087,10.17,8.966,12.5l2.318-.02q9.309-1.02,9.257-7.079.459,0,.917-2.785l-.49-.937-.016-1.859q-.111-13.035-8.948-12.959l-.94.008q-10.217,2.319-10.176,7.065a11.328,11.328,0,0,0-.9,5.126Z"/>
        <path class="a" d="M119.428,167q7.035,6.764,16.967,22.208l.919-.008a.822.822,0,0,0,.933-.926l-.173-20.034q0-.657,1.388-1.412l2.318-.02,2.345.461.316,36.765a.832.832,0,0,1-.932.949,3.734,3.734,0,0,1-2.282.01c-1.307-.448-2.118-1.762-3.687-4.372-.265-.44-.393-.663-.6-1.028-1.179-2.116-4.688-7.3-10.369-15.419l-2.823-2.775-.941.008-.439,2.344.16,18.613a2.474,2.474,0,0,1-2.775,2.823l-.919.008a2.594,2.594,0,0,1-2.82-2.316l.44-2.322-.277-32.129q0-.655,1.388-1.412Z"/>
        <path class="a" d="M171.936,166.093q2.342-.019,2.816,1.835.024,2.8-6.494,2.856-11.175.1-11.148,3.355a14.972,14.972,0,0,0-.427,3.722l.008.94q.045,5.118,5.621,5.07,2.447-.48,2.8-.483,5.121.283,5.142,2.733.024,2.8-10.212,2.888a7.709,7.709,0,0,0-3.658,7.009q.033,3.893,5.154,4.155l7.436-.064,2.8-.483a3.009,3.009,0,0,1,2.368,3.238l0,.46q.006.808-2.328,1.419-8.273-.387-13.5-.343l-5.6.048-.479-2.336-.172-20.012q-.042-4.9.331-14.9a5.459,5.459,0,0,1,2.791-.965Z"/>
      </g>
    </g>
  </g>
</svg>
